<svg width="15" height="16" viewBox="0 0 15 16" fill="none" xmlns="http://www.w3.org/2000/svg">
<path d="M14.5 10.5C14.5 10.9688 14.2812 11.3438 14 11.625V14.1562C14.2812 14.3438 14.5 14.6562 14.5 15C14.5 15.5625 14.0312 16 13.5 16H3.5C1.8125 16 0.5 14.6875 0.5 13V3C0.5 1.34375 1.8125 0 3.5 0H6.5V6C6.5 6.4375 6.96875 6.65625 7.28125 6.40625L9 5L10.6875 6.375C11 6.625 11.5 6.40625 11.5 6V0H13C13.8125 0 14.5 0.6875 14.5 1.5V10.5ZM12.5 14V12H3.5C2.9375 12 2.5 12.4688 2.5 13C2.5 13.5625 2.9375 14 3.5 14H12.5Z" fill="#080808" fill-opacity="0.25" style="fill:#080808;fill:color(display-p3 0.0314 0.0314 0.0314);fill-opacity:0.25;"/>
</svg>
