<svg width="132" height="31" viewBox="0 0 132 31" fill="none" xmlns="http://www.w3.org/2000/svg">
<path d="M8.35254 22.71C6.89254 22.71 5.57254 22.46 4.39254 21.96C3.23254 21.46 2.31254 20.74 1.63254 19.8C0.952536 18.86 0.602536 17.75 0.582536 16.47H5.08254C5.14254 17.33 5.44254 18.01 5.98254 18.51C6.54254 19.01 7.30254 19.26 8.26254 19.26C9.24254 19.26 10.0125 19.03 10.5725 18.57C11.1325 18.09 11.4125 17.47 11.4125 16.71C11.4125 16.09 11.2225 15.58 10.8425 15.18C10.4625 14.78 9.98254 14.47 9.40254 14.25C8.84254 14.01 8.06254 13.75 7.06254 13.47C5.70254 13.07 4.59254 12.68 3.73254 12.3C2.89254 11.9 2.16254 11.31 1.54254 10.53C0.942536 9.73 0.642536 8.67 0.642536 7.35C0.642536 6.11 0.952536 5.03 1.57254 4.11C2.19254 3.19 3.06254 2.49 4.18254 2.01C5.30254 1.51 6.58254 1.26 8.02254 1.26C10.1825 1.26 11.9325 1.79 13.2725 2.85C14.6325 3.89 15.3825 5.35 15.5225 7.23H10.9025C10.8625 6.51 10.5525 5.92 9.97254 5.46C9.41254 4.98 8.66254 4.74 7.72254 4.74C6.90254 4.74 6.24254 4.95 5.74254 5.37C5.26254 5.79 5.02254 6.4 5.02254 7.2C5.02254 7.76 5.20254 8.23 5.56254 8.61C5.94254 8.97 6.40254 9.27 6.94254 9.51C7.50254 9.73 8.28254 9.99 9.28254 10.29C10.6425 10.69 11.7525 11.09 12.6125 11.49C13.4725 11.89 14.2125 12.49 14.8325 13.29C15.4525 14.09 15.7625 15.14 15.7625 16.44C15.7625 17.56 15.4725 18.6 14.8925 19.56C14.3125 20.52 13.4625 21.29 12.3425 21.87C11.2225 22.43 9.89254 22.71 8.35254 22.71ZM22.4038 8.28C22.9438 7.52 23.6838 6.89 24.6238 6.39C25.5838 5.87 26.6738 5.61 27.8938 5.61C29.3138 5.61 30.5938 5.96 31.7338 6.66C32.8938 7.36 33.8038 8.36 34.4638 9.66C35.1438 10.94 35.4838 12.43 35.4838 14.13C35.4838 15.83 35.1438 17.34 34.4638 18.66C33.8038 19.96 32.8938 20.97 31.7338 21.69C30.5938 22.41 29.3138 22.77 27.8938 22.77C26.6738 22.77 25.5938 22.52 24.6538 22.02C23.7338 21.52 22.9838 20.89 22.4038 20.13V30.42H18.2038V5.88H22.4038V8.28ZM31.1938 14.13C31.1938 13.13 30.9838 12.27 30.5638 11.55C30.1638 10.81 29.6238 10.25 28.9438 9.87C28.2838 9.49 27.5638 9.3 26.7838 9.3C26.0238 9.3 25.3038 9.5 24.6238 9.9C23.9638 10.28 23.4238 10.84 23.0038 11.58C22.6038 12.32 22.4038 13.19 22.4038 14.19C22.4038 15.19 22.6038 16.06 23.0038 16.8C23.4238 17.54 23.9638 18.11 24.6238 18.51C25.3038 18.89 26.0238 19.08 26.7838 19.08C27.5638 19.08 28.2838 18.88 28.9438 18.48C29.6238 18.08 30.1638 17.51 30.5638 16.77C30.9838 16.03 31.1938 15.15 31.1938 14.13ZM52.7858 13.83C52.7858 14.43 52.7458 14.97 52.6658 15.45H40.5158C40.6158 16.65 41.0358 17.59 41.7758 18.27C42.5158 18.95 43.4258 19.29 44.5058 19.29C46.0658 19.29 47.1758 18.62 47.8358 17.28H52.3658C51.8858 18.88 50.9658 20.2 49.6058 21.24C48.2458 22.26 46.5758 22.77 44.5958 22.77C42.9958 22.77 41.5558 22.42 40.2758 21.72C39.0158 21 38.0258 19.99 37.3058 18.69C36.6058 17.39 36.2558 15.89 36.2558 14.19C36.2558 12.47 36.6058 10.96 37.3058 9.66C38.0058 8.36 38.9858 7.36 40.2458 6.66C41.5058 5.96 42.9558 5.61 44.5958 5.61C46.1758 5.61 47.5858 5.95 48.8258 6.63C50.0858 7.31 51.0558 8.28 51.7358 9.54C52.4358 10.78 52.7858 12.21 52.7858 13.83ZM48.4358 12.63C48.4158 11.55 48.0258 10.69 47.2658 10.05C46.5058 9.39 45.5758 9.06 44.4758 9.06C43.4358 9.06 42.5558 9.38 41.8358 10.02C41.1358 10.64 40.7058 11.51 40.5458 12.63H48.4358ZM53.5714 14.13C53.5714 12.45 53.9014 10.96 54.5614 9.66C55.2414 8.36 56.1514 7.36 57.2914 6.66C58.4514 5.96 59.7414 5.61 61.1614 5.61C62.4014 5.61 63.4814 5.86 64.4014 6.36C65.3414 6.86 66.0914 7.49 66.6514 8.25V5.88H70.8814V22.5H66.6514V20.07C66.1114 20.85 65.3614 21.5 64.4014 22.02C63.4614 22.52 62.3714 22.77 61.1314 22.77C59.7314 22.77 58.4514 22.41 57.2914 21.69C56.1514 20.97 55.2414 19.96 54.5614 18.66C53.9014 17.34 53.5714 15.83 53.5714 14.13ZM66.6514 14.19C66.6514 13.17 66.4514 12.3 66.0514 11.58C65.6514 10.84 65.1114 10.28 64.4314 9.9C63.7514 9.5 63.0214 9.3 62.2414 9.3C61.4614 9.3 60.7414 9.49 60.0814 9.87C59.4214 10.25 58.8814 10.81 58.4614 11.55C58.0614 12.27 57.8614 13.13 57.8614 14.13C57.8614 15.13 58.0614 16.01 58.4614 16.77C58.8814 17.51 59.4214 18.08 60.0814 18.48C60.7614 18.88 61.4814 19.08 62.2414 19.08C63.0214 19.08 63.7514 18.89 64.4314 18.51C65.1114 18.11 65.6514 17.55 66.0514 16.83C66.4514 16.09 66.6514 15.21 66.6514 14.19ZM83.6235 22.5L77.9835 15.42V22.5H73.7835V0.3H77.9835V12.93L83.5635 5.88H89.0235L81.7035 14.22L89.0835 22.5H83.6235ZM111.741 5.88V22.5H107.511V20.4C106.971 21.12 106.261 21.69 105.381 22.11C104.521 22.51 103.581 22.71 102.561 22.71C101.261 22.71 100.111 22.44 99.1114 21.9C98.1114 21.34 97.3214 20.53 96.7414 19.47C96.1814 18.39 95.9014 17.11 95.9014 15.63V5.88H100.101V15.03C100.101 16.35 100.431 17.37 101.091 18.09C101.751 18.79 102.651 19.14 103.791 19.14C104.951 19.14 105.861 18.79 106.521 18.09C107.181 17.37 107.511 16.35 107.511 15.03V5.88H111.741ZM118.885 8.28C119.425 7.52 120.165 6.89 121.105 6.39C122.065 5.87 123.155 5.61 124.375 5.61C125.795 5.61 127.075 5.96 128.215 6.66C129.375 7.36 130.285 8.36 130.945 9.66C131.625 10.94 131.965 12.43 131.965 14.13C131.965 15.83 131.625 17.34 130.945 18.66C130.285 19.96 129.375 20.97 128.215 21.69C127.075 22.41 125.795 22.77 124.375 22.77C123.155 22.77 122.075 22.52 121.135 22.02C120.215 21.52 119.465 20.89 118.885 20.13V30.42H114.685V5.88H118.885V8.28ZM127.675 14.13C127.675 13.13 127.465 12.27 127.045 11.55C126.645 10.81 126.105 10.25 125.425 9.87C124.765 9.49 124.045 9.3 123.265 9.3C122.505 9.3 121.785 9.5 121.105 9.9C120.445 10.28 119.905 10.84 119.485 11.58C119.085 12.32 118.885 13.19 118.885 14.19C118.885 15.19 119.085 16.06 119.485 16.8C119.905 17.54 120.445 18.11 121.105 18.51C121.785 18.89 122.505 19.08 123.265 19.08C124.045 19.08 124.765 18.88 125.425 18.48C126.105 18.08 126.645 17.51 127.045 16.77C127.465 16.03 127.675 15.15 127.675 14.13Z" fill="#2563EB" style="fill:#2563EB;fill:color(display-p3 0.1451 0.3882 0.9216);fill-opacity:1;"/>
</svg>
